<!--
  Icono de Hacha SVG
  - Creado para ser usado como favicon o en cualquier lugar donde se necesite un ícono simple.
  - El atributo `fill="currentColor"` permite cambiar el color del ícono fácilmente con CSS.
  - El `viewBox` define el área de dibujo del ícono.
-->
<svg xmlns="http://www.w3.org/2000/svg" viewBox="0 0 24 24" fill="currentColor" width="32px" height="32px">
  <path d="M20.9,5.5L18.4,3c-0.4-0.4-1-0.4-1.4,0L10,10.1V5c0-0.6-0.4-1-1-1S8,4.4,8,5v6.1L4.4,14.7c-0.4,0.4-0.4,1,0,1.4l2.5,2.5c0.2,0.2,0.5,0.3,0.7,0.3s0.5-0.1,0.7-0.3L15,12.1V19c0,0.6,0.4,1,1,1s1-0.4,1-1v-7.1l3.6-3.6C21.3,6.5,21.3,5.9,20.9,5.5z"/>
</svg>
