<?xml version="1.0" encoding="UTF-8" standalone="no"?>
<!-- Created with Inkscape (http://www.inkscape.org/) -->

<svg
   version="1.1"
   id="svg1"
   width="872.54242"
   height="677.72296"
   viewBox="0 0 872.54242 677.72296"
   xmlns="http://www.w3.org/2000/svg"
   xmlns:svg="http://www.w3.org/2000/svg">
  <defs
     id="defs1" />
  <g
     id="g1"
     transform="translate(-56.530926,-180.11711)">
    <path
       style="fill:#5c832f;fill-opacity:1;stroke:#5c832f;stroke-opacity:1"
       d="m 356.59091,856.10889 c -5.2558,-2.00406 -19.09478,-12.07863 -23.34595,-16.9955 -1.90215,-2.2 -4.82127,-6.7 -6.48695,-10 -1.66568,-3.3 -3.10525,-6.09257 -3.19904,-6.20571 -0.0938,-0.11315 -2.17795,0.49402 -4.63148,1.34926 -3.06229,1.06743 -6.70986,1.41573 -11.6337,1.11085 -10.92559,-0.67648 -16.55818,-3.90971 -29.0261,-16.6616 -11.52076,-11.78316 -16.02163,-17.93641 -19.08588,-26.0928 -1.29512,-3.44733 -2.5606,-5.36308 -3.39077,-5.13313 -0.72848,0.20178 -4.2495,0.36625 -7.8245,0.36549 -8.29856,-0.002 -16.29752,-2.98164 -22.3832,-8.33846 -4.92726,-4.33715 -18.46038,-22.4826 -22.33123,-29.94211 -5.15926,-9.94242 -6.83,-25.56199 -3.93005,-36.7416 l 1.35552,-5.22566 -3.32658,-2.05594 c -8.24383,-5.09497 -19.01982,-22.01084 -21.95599,-34.46596 -2.9257,-12.41071 -0.55015,-28.79158 5.70126,-39.31372 1.19233,-2.0069 5.27366,-6.83238 9.0696,-10.72329 l 6.90172,-7.07438 -14.3802,-17.92562 c -7.90911,-9.85909 -15.08508,-18.50441 -15.9466,-19.21181 -1.33545,-1.09657 -1.86739,-0.79918 -3.60792,2.01706 -4.60939,7.45815 -11.07631,10.45203 -16.47116,7.62538 -4.29412,-2.24991 -86.561682,-83.0572 -88.311792,-86.74422 -2.36289,-4.97801 -1.45518,-12.65987 2.18592,-18.49906 1.61189,-2.58497 18.74522,-28.86787 38.07406,-58.40645 28.814902,-44.03529 61.354052,-93.81122 114.861552,-175.70652 24.14083,-36.94847 34.4928,-52.29181 36.4332,-54 3.64868,-3.21205 10.74333,-2.74553 15.20771,1 12.28782,10.30926 77.71825,73.43462 79.60418,76.79978 3.37472,6.02169 3.00958,11.64977 -1.25,19.2666 -1.925,3.44223 -3.5,6.49076 -3.5,6.77451 0,0.82227 22.25706,14.69416 37,23.06055 15.10586,8.57235 39.99814,20.97536 56.26369,28.03437 l 10.76369,4.67128 10.82614,-9.30354 c 14.90498,-12.80874 27.8226,-21.83515 39.64648,-27.70366 17.59642,-8.73358 23.24406,-10.0369 52.5,-12.11559 35.1765,-2.49934 69.75026,-9.41054 90.69414,-18.1295 6.68462,-2.78281 7.30586,-3.28688 7.30586,-5.92788 0,-7.20358 2.52881,-10.31141 27.83188,-34.20464 13.5259,-12.77225 31.13455,-29.46025 39.13033,-37.08443 15.9363,-15.19566 19.15602,-17.62853 23.33745,-17.63411 5.8121,-0.008 8.22111,2.46138 18.27136,18.72748 5.35863,8.67283 15.02279,24.31878 21.47589,34.76878 77.02113,124.72613 151.59506,246.79936 152.70446,249.96839 1.4776,4.22083 1.0244,9.14347 -1.2427,13.49705 -1.6659,3.19922 -75.59135,75.50431 -79.85331,78.10307 -6.07675,3.70536 -12.48684,1.37148 -17.25449,-6.28227 -1.46848,-2.35743 -2.84477,-4.48409 -3.05842,-4.72591 -0.21365,-0.24181 -1.13155,0.62126 -2.03979,1.91794 -11.86547,16.94034 -37.36351,38.22127 -60.55266,50.53788 l -8.75,4.64744 -0.0174,6.16821 c -0.0639,22.69103 -13.28435,45.27157 -31.88912,54.46654 -7.21667,3.56667 -7.87458,3.70111 -18.04166,3.68671 -8.77952,-0.0124 -11.37104,-0.39037 -15.42898,-2.25 -2.68237,-1.22928 -4.97884,-2.23505 -5.10322,-2.23505 -0.12438,0 -0.50376,3.28416 -0.84307,7.29812 -2.45996,29.10134 -23.22996,54.17709 -47.67655,57.5602 -11.33095,1.56807 -23.98241,-1.43723 -32.95931,-7.82935 l -2.85886,-2.03568 -1.19251,7.25335 c -3.06778,18.65953 -14.07631,35.93269 -28.05242,44.01621 -9.62768,5.56848 -23.41622,7.31548 -33.52797,4.24797 -2.69991,-0.81904 -5.40875,-1.49404 -6.01964,-1.5 -0.61089,-0.006 -1.38574,2.31143 -1.7219,5.14974 -2.06236,17.41343 -13.7807,34.85156 -28.15083,41.89146 -8.5528,4.19 -15.85854,5.32721 -25.31933,3.94123 -18.54076,-2.71619 -42.14461,-9.05814 -59.97326,-16.11378 -4.00182,-1.58371 -7.66647,-2.87947 -8.14366,-2.87947 -0.4772,0 -2.04509,2.94124 -3.4842,6.53608 -4.92667,12.3066 -11.69778,20.42072 -21.06213,25.23968 -4.10442,2.11216 -6.69589,2.64656 -14.03398,2.89403 -6.17679,0.2083 -10.21574,-0.16006 -12.87563,-1.17429 z m 19.51167,-33.21515 c 1.75805,-1.78707 5.66044,-10.04619 10.92341,-23.1186 7.43104,-18.45755 8.12999,-20.76932 7.55863,-25 -1.56182,-11.56457 -12.71974,-16.76767 -20.13117,-9.38746 -3.71705,3.70138 -23.4858,28.99865 -25.14351,32.17512 -1.89456,3.63033 -1.67943,11.97079 0.4066,15.76377 1.70931,3.108 8.66636,9.0074 14.05514,11.91839 3.74599,2.02357 9.01564,1.01876 12.3309,-2.35122 z m 113.18777,-13.21336 c 8.32273,-3.1643 14.65072,-13.57928 14.66642,-24.13885 0.0135,-9.09805 -2.32657,-15.28206 -7.88738,-20.84341 -2.53157,-2.53181 -19.75439,-16.59757 -38.27293,-31.25723 -18.51855,-14.65966 -34.39551,-27.76106 -35.28214,-29.11423 -2.8639,-4.37087 -3.11639,-11.90723 -0.57481,-17.15742 2.56376,-5.29604 6.12833,-7.55585 11.91838,-7.55585 4.3071,0 7.59272,2.48171 77.65942,58.65802 13.77793,11.04651 26.59125,20.88118 28.47406,21.85482 4.57963,2.36822 12.47456,2.35341 17.4322,-0.0327 11.71091,-5.63645 18.37383,-20.97715 15.56849,-35.84488 -2.34705,-12.4389 -2.81154,-12.92808 -52.3537,-55.13683 -31.51084,-26.84648 -45.8826,-39.71725 -47.02567,-42.11428 -3.3393,-7.00259 -1.51379,-15.79341 4.2946,-20.68085 3.47135,-2.92095 8.55847,-3.57687 12.28272,-1.58371 1.15059,0.61578 14.28351,11.5508 29.18426,24.30005 77.96607,66.70864 96.4295,82.2197 99.96791,83.98268 9.52356,4.74502 23.49549,0.788 30.65224,-8.68109 5.40007,-7.14483 7.47212,-13.72282 7.47212,-23.72123 0,-9.69837 -2.04178,-17.02021 -6.58957,-23.63019 -1.86228,-2.70673 -23.62914,-21.17942 -59.90816,-50.84174 -31.3407,-25.62467 -57.60821,-47.8138 -58.37224,-49.30919 -3.74661,-7.33297 -2.64243,-15.40648 2.85957,-20.90848 2.77983,-2.77983 4.04169,-3.3104 7.87317,-3.3104 4.23113,0 5.31047,0.60677 14.85,8.34815 5.65798,4.59149 38.18723,31.17819 72.28723,59.08155 34.1,27.90337 63.66957,51.5967 65.71016,52.65185 2.17303,1.12363 5.69461,1.90935 8.5,1.89649 13.6653,-0.0627 23.737,-12.5703 23.737,-29.47804 0,-11.19353 -2.01747,-15.36126 -15.79291,-32.62534 -6.7473,-8.45606 -21.0676,-26.39966 -31.82287,-39.87466 -41.54824,-52.05467 -70.08934,-82.74767 -100.83138,-108.43372 l -10.5,-8.77312 -20,0.46535 c -31.58491,0.73489 -40.16392,3.65392 -78.5,26.70983 -30.0153,18.05166 -29.40021,17.73462 -36.61655,18.87362 -22.52813,3.55575 -42.55209,-12.3818 -47.80581,-38.0498 -1.94838,-9.51917 -1.9671,-15.28984 -0.0785,-24.2046 2.83266,-13.37112 7.11581,-20.31049 26.68147,-43.22818 l 7.80368,-9.14062 -20.74213,-10.17418 c -23.53658,-11.54487 -48.35509,-25.40275 -65.24216,-36.42917 -6.325,-4.12991 -11.7713,-7.19539 -12.10288,-6.81217 -0.63183,0.73021 -135.8428,217.33422 -139.14224,222.90178 l -1.89936,3.20502 11.37762,13.79498 c 6.25769,7.58724 14.42755,17.73248 18.15524,22.54498 3.7277,4.8125 7.07777,8.72616 7.44462,8.69703 0.36685,-0.0291 6.967,-5.88093 14.667,-13.004 17.97075,-16.62427 23.2034,-19.47942 35.4822,-19.36061 10.56902,0.10227 15.84837,2.25259 23.65332,9.63419 5.64202,5.33599 12.68635,16 13.92281,21.07694 0.37419,1.53646 0.96972,2.66146 1.32339,2.5 0.35367,-0.16145 3.33747,-1.64355 6.63066,-3.29355 5.32788,-2.66945 6.97927,-2.99944 14.98762,-2.99495 10.63846,0.006 15.74441,1.91374 22.98525,8.58812 6.55088,6.03839 15.44864,19.0641 18.31948,26.81847 5.98999,16.17943 3.28924,36.8258 -6.5296,49.91671 -2.40074,3.20076 -2.42511,3.3784 -0.63578,4.63428 4.31943,3.03168 6.72959,5.55464 14.32441,14.99477 12.08378,15.01979 15.00175,22.50351 15.02812,38.5426 l 0.0156,9.5 4.36309,1.79398 c 9.48026,3.89802 19.983,18.45833 22.67777,31.43899 1.18531,5.70958 0.86546,23.13936 -0.48403,26.3774 -1.15809,2.77878 24.65915,11.63192 47.93567,16.43791 12.15905,2.51052 18.12345,2.92558 21.82381,1.51871 z M 313.33327,793.23352 c 3.68596,-1.54009 2.67609,-0.35289 30.60755,-35.98187 11.15092,-14.22396 20.94928,-27.57983 21.77414,-29.67972 2.76099,-7.02879 1.17299,-11.77556 -7.37551,-22.04649 -11.71556,-14.07612 -15.79763,-14.89286 -25.40476,-5.083 -12.05442,12.30879 -47.5672,53.41016 -49.19193,56.93317 -2.02551,4.39206 -2.14296,6.3768 -0.68752,11.61858 1.82575,6.57552 21.02092,25.3212 26.19342,25.58006 0.43016,0.0215 2.26824,-0.5818 4.08461,-1.34073 z m -55.37536,-52.31127 c 20.11739,-21.49199 86.86295,-98.13743 88.3528,-101.45753 2.79924,-6.23804 1.62728,-11.2746 -4.67022,-20.07052 -6.22889,-8.7001 -10.32671,-10.78839 -16.28483,-8.29893 -2.1141,0.88333 -13.90537,11.69649 -29.70557,27.24143 -14.40997,14.17718 -35.81211,35.18691 -47.5603,46.68829 -12.45751,12.1958 -21.93613,22.28964 -22.7418,24.21788 -1.62983,3.90073 -1.76917,8.22055 -0.38278,11.86701 1.6964,4.46188 15.07972,22.47472 17.86552,24.04553 4.7918,2.7019 9.99988,1.24448 15.12718,-4.23316 z M 220.4099,669.2015 c 3.6848,-1.5396 59.09959,-55.13325 61.49835,-59.47726 5.1009,-9.23746 -3.06883,-26.11085 -12.64231,-26.11085 -1.88699,0 -4.4138,0.52462 -5.61514,1.16582 -1.89878,1.01345 -45.65135,40.21078 -57.29988,51.33418 -7.66914,7.32341 -7.84826,15.64152 -0.57062,26.5 3.24598,4.84311 6.21351,6.99228 10.96836,7.94356 0.15516,0.031 1.80272,-0.57891 3.66124,-1.35545 z m 533.40575,-81.51194 c 13.70556,-6.91855 33.08201,-21.99085 43.80719,-34.07617 5.87974,-6.6254 11.3437,-14.10997 11.3437,-15.53868 0,-1.1031 -145.96977,-235.63599 -148.01851,-237.82464 -0.44447,-0.47482 -3.67052,0.4891 -7.16899,2.14205 -25.01326,11.81819 -65.63809,20.33953 -110.8125,23.24368 -18.33209,1.17852 -26.07655,2.97832 -37.45693,8.70494 -21.77371,10.95656 -48.89831,34.81479 -75.91433,66.77265 -15.13874,17.90796 -17.60697,22.10134 -17.61936,29.93428 -0.0187,11.82345 6.10038,19.10191 15.99062,19.02038 5.28637,-0.0436 6.40306,-0.59659 28.75001,-14.23744 33.15376,-20.23745 41.89606,-24.25538 63.80666,-29.32529 8.85188,-2.04825 12.46797,-2.29976 32.94333,-2.29134 17.34573,0.007 23.61459,0.34011 25.5,1.35445 6.43782,3.46355 30.3933,24.44664 48.57171,42.54496 25.13261,25.02186 40.53631,42.52129 70.49976,80.09147 7.93569,9.9503 20.27853,25.39354 27.42853,34.31831 7.15,8.92476 14.8,18.86476 17,22.08888 2.2,3.22411 4.35033,5.89337 4.77852,5.93168 0.42818,0.0383 3.38495,-1.24606 6.57059,-2.85417 z M 217.47856,429.11339 c 36.71664,-58.85 73.71186,-118.13008 82.21159,-131.73351 8.49972,-13.60343 15.30158,-25.11878 15.11522,-25.58966 -0.55033,-1.39056 -53.99618,-51.6531 -55.21979,-51.93081 -0.61547,-0.13969 -4.55712,5.03531 -8.75923,11.5 -6.76673,10.41022 -65.35248,100.14061 -85.10608,130.34913 -27.26098,41.68929 -75.518582,115.6504 -76.247482,116.85927 -1.26392,2.09618 58.482422,60.46597 60.121002,58.73582 0.61998,-0.65463 31.16813,-49.34024 67.88477,-108.19024 z m 664.2541,72.2906 15.26613,-15.34635 -41.80161,-67.97213 C 832.2063,380.70085 795.4882,320.98029 773.6014,285.37317 c -21.8868,-35.60712 -40.16458,-64.96913 -40.61728,-65.24892 -0.72077,-0.44546 -18.38728,15.78492 -47.36047,43.51047 l -8.90479,8.52133 83.24623,133.22681 83.24623,133.22681 11.62761,-10.92966 c 6.39519,-6.01132 18.49737,-17.83552 26.89373,-26.27602 z"
       id="path1" />
  </g>
</svg>
